<svg xmlns="http://www.w3.org/2000/svg" viewBox="0 0 512 512" role="img" aria-labelledby="title desc">
  <title>Temp Inbox Manager</title>
  <desc>Abstract envelope and mobile phone monogram icon</desc>
  <defs>
    <linearGradient id="bg" x1="0" y1="0" x2="1" y2="1">
      <stop offset="0%" stop-color="#f4d7c2" />
      <stop offset="100%" stop-color="#f3efe8" />
    </linearGradient>
    <linearGradient id="accent" x1="0" y1="0" x2="1" y2="1">
      <stop offset="0%" stop-color="#9b4d2f" />
      <stop offset="100%" stop-color="#d46d44" />
    </linearGradient>
  </defs>
  <rect width="512" height="512" rx="112" fill="url(#bg)" />
  <circle cx="380" cy="138" r="68" fill="#ffffff" opacity="0.5" />
  <path d="M128 170h256c22 0 40 18 40 40v150c0 22-18 40-40 40H128c-22 0-40-18-40-40V210c0-22 18-40 40-40z" fill="#ffffff" opacity="0.92" />
  <path d="M128 210l128 96 128-96" fill="none" stroke="url(#accent)" stroke-width="28" stroke-linecap="round" stroke-linejoin="round" />
  <path d="M224 286c0-22 18-40 40-40h24c22 0 40 18 40 40v52h-104z" fill="url(#accent)" opacity="0.9" />
  <rect x="160" y="304" width="56" height="24" rx="12" fill="#d46d44" opacity="0.9" />
  <rect x="296" y="304" width="56" height="24" rx="12" fill="#d46d44" opacity="0.9" />
  <rect x="240" y="328" width="32" height="48" rx="16" fill="#ffffff" opacity="0.75" />
</svg>
